<svg width="1600" height="900" viewBox="0 0 1600 900" fill="none" xmlns="http://www.w3.org/2000/svg">
  <rect width="1600" height="900" fill="#05080C"/>
  <rect width="1600" height="900" fill="url(#g)"/>
  <path d="M0 720C220 660 400 690 575 618C745 548 860 420 1040 402C1240 381 1395 488 1600 438V900H0V720Z" fill="#101820" fill-opacity=".72"/>
  <circle cx="1120" cy="230" r="260" fill="#D8B76A" fill-opacity=".11"/>
  <circle cx="360" cy="355" r="210" fill="#39566A" fill-opacity=".16"/>
  <rect x="88" y="74" width="1424" height="752" rx="26" stroke="#D8B76A" stroke-opacity=".28"/>
  <text x="120" y="150" fill="#B7AA8A" font-family="Inter, Arial" font-size="28" font-weight="700" letter-spacing="9">AI VIDEO STORYTELLING</text>
  <text x="120" y="535" fill="#F8F3E8" font-family="Playfair Display, Georgia" font-size="76" font-weight="700">Le mystère d'un village</text>
  <text x="120" y="620" fill="#D8B76A" font-family="Playfair Display, Georgia" font-size="76" font-weight="700">qui réapparaît chaque été</text>
  <text x="122" y="690" fill="#B7AA8A" font-family="Inter, Arial" font-size="28">Script · narration · montage · tension cinématique</text>
  <circle cx="1370" cy="690" r="52" fill="#D8B76A"/>
  <path d="M1354 662L1402 690L1354 718V662Z" fill="#05080C"/>
  <defs>
    <radialGradient id="g" cx="0" cy="0" r="1" gradientUnits="userSpaceOnUse" gradientTransform="translate(1030 260) rotate(132) scale(850 780)">
      <stop stop-color="#253541"/>
      <stop offset=".45" stop-color="#071015"/>
      <stop offset="1" stop-color="#05080C"/>
    </radialGradient>
  </defs>
</svg>
